<svg xmlns="http://www.w3.org/2000/svg" version="1.1">
    <path d="M15.81,17a6.93,6.93,0,0,0,1.1,1A12.87,12.87,0,0,1,18,19.14a3.29,3.29,0,0,1,.57.85,15.58,15.58,0,0,0,.82-1.5c.35-.55.79-1,1.2-1.55.28-.4.2-.46-.07-.85-.12-.17-.25-.38-.37-.55a10.67,10.67,0,0,1-1.8-2.35s-.82,1.06-.87,1.12l-.7.81C16.54,15.38,15.44,16.71,15.81,17Z"></path><path d="M24,16.94c0,.23.64.78.77,1s.28.46.42.67S26,20,26.06,20a4.89,4.89,0,0,1,1.27-1.62,9.19,9.19,0,0,0,1.42-1.35c.12-.21.18-.08,0-.47a2,2,0,0,0-.25-.42,11.54,11.54,0,0,0-.87-1.22c-.26-.31-.58-.55-.87-.9a6,6,0,0,0-.52-.8,10.43,10.43,0,0,1-1.72,2.27C24.36,15.78,23.54,16.69,24,16.94Z"></path><path d="M12.94,25.31c-.29,0-.45-2.51-.47-2.87a28.35,28.35,0,0,1,0-3c0-.36.06-.65.07-1,0-.54-.17-.68-.52-1-1-.88-2-1.53-3-2.26a6.41,6.41,0,0,0-1.54-1.09c.12.41.66.93.82,1.27a5.78,5.78,0,0,1,.54,1.79,21.85,21.85,0,0,0,.94,4.64,12.79,12.79,0,0,0,1.39,2.54c.36.51,1.21,1.5,1.85,1.5A2.3,2.3,0,0,1,12.94,25.31Z"></path><path d="M36.52,14.89c-.35,0-1,.48-1.3.65s-.78.44-1.17.65-.94.52-1.37.8a.89.89,0,0,0-.44.87,16.45,16.45,0,0,0,.06,1.95,18,18,0,0,1-.09,3.52,20.41,20.41,0,0,0-.65,2.5,6,6,0,0,0,2.06-1.92,6.76,6.76,0,0,0,.64-1.07,11.45,11.45,0,0,0,.5-1.35c.43-1.37.61-3,1-4.46a5.1,5.1,0,0,1,.65-1.56,4.51,4.51,0,0,0,.47-.75A1.23,1.23,0,0,0,36.52,14.89Z"></path>
    <path d="M24.78,28.46c.23,0,.65-1.29.7-1.46a12.61,12.61,0,0,0,.42-4.18,8.82,8.82,0,0,0-.72-3.37,11.57,11.57,0,0,0-.77-1.22c-.41-.61-1.05-1.2-1.55-1.85-.07-.09-.37-.75-.45-.75a7,7,0,0,1-1.5,1.92,7.9,7.9,0,0,0-.82,1.1,9.55,9.55,0,0,0-1,2.17c-.72,2.4-.78,6.84,1.65,8.37C21.69,29.78,24.33,29.83,24.78,28.46Z"></path>
    <path d="M31.6,24c0-1,.21-2.2.19-3.34,0-1.64-.1-3.21,0-4.86-1.72.19-3.55,2.09-4.62,3.5a5.3,5.3,0,0,0-.8,1,6.22,6.22,0,0,0,.15,2.07,15.62,15.62,0,0,1-.37,4.57A8.17,8.17,0,0,1,25.76,28c-.09.25-.61,1.47-1,1.47,0,.62,2.7-.17,3-.34a6,6,0,0,0,1.37-.92,7.08,7.08,0,0,0,1.91-2.64C31.11,25.48,31.59,24,31.6,24Z"></path>
    <path d="M20.09,29.7c-.15,0-.77-1-.87-1.17a5.94,5.94,0,0,1-.3-.57,12.81,12.81,0,0,1-.72-6c0-.6.28-1.27,0-1.8a5.87,5.87,0,0,0-.62-.87A12,12,0,0,0,15.26,17,5.19,5.19,0,0,0,13,15.79c0,.33.14.57.17.92a14.78,14.78,0,0,1,0,2.08c-.06.92-.21,2-.19,3.06a10.91,10.91,0,0,0,.56,3.39c.08.21.21.43.3.62a7,7,0,0,0,3.27,3.3,6.3,6.3,0,0,0,.75.32C18,29.54,20.09,30,20.09,29.7Z"></path>
    <path d="M19.21,31.1c0-.77-1.74-1.36-2.27-1.5a3.37,3.37,0,0,0-3.72,2.27,4.78,4.78,0,0,1,2,.24,14,14,0,0,0,1.4.64,3.42,3.42,0,0,0,1.77,0,1.41,1.41,0,0,0,.67-.45C19.19,32.17,19.42,31.1,19.21,31.1Z"></path>
    <path d="M31,32.18a3.4,3.4,0,0,0-3.75-2.46,2.92,2.92,0,0,0-2.17,1c-.64,1,.44,2,1.52,1.89a4.9,4.9,0,0,0,.87-.27,10.61,10.61,0,0,1,1.26-.42A4.25,4.25,0,0,1,30.4,32c.09,0,.16,0,.25.06S31.16,32.18,31,32.18Z"></path>
    <path d="M24.53,31.88c.11,0-.43-.76-.51-.83a3.61,3.61,0,0,0-2.89-.4,1.69,1.69,0,0,0-1.3,1c-.43,1.13.44,1.84,1.21,2.51a5.18,5.18,0,0,0,.79.57c.45.26.78-.1,1.15-.35a7.13,7.13,0,0,0,.85-.62A2,2,0,0,0,24.53,31.88Z"></path>
    <path d="M0,22.09A22.09,22.09,0,1,0,22.09,0,22.12,22.12,0,0,0,0,22.09Zm4.64,0A17.45,17.45,0,1,1,22.09,39.53,17.47,17.47,0,0,1,4.64,22.09Z"></path>
</svg>