<svg xmlns="http://www.w3.org/2000/svg" version="1.1">
<path stroke-width="2px" fill-opacity="0" d="M17.000,1.000 C25.837,1.000 33.000,8.164 33.000,17.000 C33.000,25.836 25.837,33.000 17.000,33.000 C8.163,33.000 1.000,25.836 1.000,17.000 C1.000,8.164 8.163,1.000 17.000,1.000 Z"></path>
<path stroke-opacity="0" d="M24.022,19.561 C24.636,19.557 25.249,19.566 25.863,19.557 C26.196,19.553 26.489,19.635 26.488,20.033 C26.487,20.436 26.180,20.508 25.855,20.505 C25.201,20.504 24.547,20.483 23.896,20.516 C23.513,20.535 23.348,20.391 23.222,20.018 C22.522,17.931 21.402,15.897 19.684,14.562 C18.654,13.764 17.626,13.397 16.182,13.408 C15.777,13.412 14.869,13.579 14.368,13.730 C15.288,12.503 16.263,11.531 17.537,10.932 C18.490,10.483 19.933,10.770 20.796,11.264 C22.732,12.372 24.109,14.039 25.100,16.064 C25.399,16.676 25.616,17.572 25.917,18.323 C25.180,18.323 24.593,18.336 24.007,18.319 C23.573,18.306 23.218,18.437 23.226,18.933 C23.234,19.418 23.598,19.563 24.022,19.561 ZM16.793,16.067 C19.268,17.518 20.851,20.182 21.798,22.974 C19.150,22.974 16.631,22.982 14.113,22.957 C13.926,22.955 13.742,22.705 13.557,22.572 C13.751,22.423 13.939,22.155 14.141,22.144 C15.043,22.097 15.949,22.125 16.853,22.124 C17.174,22.122 17.591,21.801 17.542,21.326 C17.526,21.174 17.103,20.959 16.865,20.956 C14.173,20.929 11.419,20.939 8.727,20.939 C8.540,20.939 8.353,20.939 8.018,20.939 C8.289,20.512 8.478,20.185 8.696,19.878 C9.847,18.260 11.179,16.860 12.969,15.980 C14.266,15.343 15.534,15.329 16.793,16.067 Z"></path>
</svg>