<svg xmlns="http://www.w3.org/2000/svg" version="1.1">
<path stroke-width="2px" fill-opacity="0" d="M17.000,1.000 C25.837,1.000 33.000,8.163 33.000,17.000 C33.000,25.837 25.837,33.000 17.000,33.000 C8.163,33.000 1.000,25.837 1.000,17.000 C1.000,8.163 8.163,1.000 17.000,1.000 Z"></path>
<path stroke-opacity="0" d="M25.410,14.863 C25.875,16.396 26.999,16.467 26.999,16.467 C26.999,16.467 25.462,17.243 24.682,15.782 C25.142,17.499 24.840,19.289 24.272,20.707 C23.533,22.552 22.657,24.159 22.657,24.159 C22.040,23.735 21.722,23.279 21.722,23.279 C22.152,22.999 22.758,22.135 22.758,22.135 C22.758,22.135 24.200,20.110 23.647,17.676 C23.023,14.931 20.489,14.381 20.380,14.349 C18.653,13.843 16.434,14.395 16.434,14.395 C15.099,14.672 13.994,15.340 13.994,15.340 C13.064,13.663 11.586,12.691 11.586,12.691 C13.420,10.868 18.650,9.795 22.039,12.149 C23.216,12.966 23.959,13.941 24.395,14.968 C24.169,14.231 23.692,12.936 22.556,12.078 C21.176,11.036 19.117,10.338 17.289,10.403 C15.459,10.467 12.809,11.008 11.085,12.682 C11.085,12.682 10.091,10.700 12.953,9.432 C15.814,8.163 16.232,7.029 16.232,7.029 C16.232,7.029 16.825,8.463 15.792,9.758 C15.792,9.758 16.959,8.787 18.720,9.088 C20.481,9.389 21.596,9.971 23.423,8.746 C23.423,8.746 22.704,10.378 21.625,10.680 C21.625,10.680 22.681,10.531 23.672,11.261 C24.663,11.992 25.213,11.734 25.587,11.648 C25.587,11.648 25.081,12.658 24.156,12.744 C24.156,12.744 24.937,13.303 25.410,14.863 ZM14.054,16.557 C14.526,18.906 13.628,20.636 13.628,20.636 C10.750,21.579 7.876,19.633 7.876,19.633 C8.321,19.257 8.253,18.934 8.253,18.934 C7.783,19.371 6.940,19.179 6.924,19.180 C7.949,18.046 7.939,16.661 8.543,15.303 C9.255,13.702 11.285,12.941 11.285,12.941 C12.055,13.176 13.584,14.223 14.054,16.557 ZM9.723,16.385 C9.375,16.385 9.093,16.660 9.093,17.000 C9.093,17.339 9.375,17.614 9.723,17.614 C10.071,17.614 10.353,17.339 10.353,17.000 C10.353,16.660 10.071,16.385 9.723,16.385 ZM14.294,16.007 C14.388,15.940 14.596,15.812 14.596,15.812 C15.796,15.074 18.930,13.980 21.447,15.321 C21.582,15.393 21.718,15.490 21.943,15.648 C22.579,16.091 24.605,18.758 22.285,21.969 C21.747,22.714 21.555,23.022 21.555,23.022 C21.039,22.258 21.048,22.249 21.048,22.249 C23.122,21.115 22.721,18.697 21.780,17.268 C20.839,15.839 17.686,18.124 16.661,18.953 C15.590,19.819 14.085,20.264 14.085,20.264 C14.326,19.773 14.483,19.230 14.544,18.254 C14.613,17.154 14.294,16.007 14.294,16.007 ZM21.181,17.243 C21.181,17.243 18.004,17.618 16.348,21.057 C16.348,21.057 16.188,20.505 14.655,20.504 C14.655,20.504 15.668,20.276 17.139,19.049 C18.417,17.983 20.339,17.019 21.181,17.243 ZM20.594,22.510 C20.594,22.510 20.891,23.561 22.278,24.470 C22.278,24.470 19.996,25.701 20.152,27.846 C20.152,27.846 17.945,26.947 19.041,24.798 C19.041,24.798 17.284,25.533 15.867,22.812 C16.094,23.165 17.095,24.179 20.594,22.510 Z">
</path>
</svg>