<svg xmlns="http://www.w3.org/2000/svg" version="1.1">
<path stroke-width="2px" fill-opacity="0" d="M17.000,1.000 C25.837,1.000 33.000,8.164 33.000,17.000 C33.000,25.836 25.837,33.000 17.000,33.000 C8.163,33.000 1.000,25.836 1.000,17.000 C1.000,8.164 8.163,1.000 17.000,1.000 Z"></path>
<path stroke-opacity="0" d="M22.646,22.616 C20.184,22.548 17.463,22.737 15.215,24.974 C15.215,24.974 15.237,22.713 17.269,20.694 C17.985,19.979 18.633,19.650 19.358,19.336 C19.671,18.614 20.001,17.976 20.715,17.257 C22.748,15.233 25.020,15.211 25.020,15.211 C22.773,17.455 22.584,20.163 22.646,22.616 ZM19.064,19.050 C18.599,19.243 18.164,19.455 17.726,19.767 L16.896,19.376 L17.868,18.744 L16.728,17.943 C16.728,17.226 17.910,16.872 18.691,16.872 C18.727,16.872 18.765,16.872 18.802,16.878 C18.799,16.872 18.799,16.872 18.799,16.872 C19.257,16.872 19.946,16.872 20.520,16.872 C20.487,16.901 20.453,16.935 20.422,16.966 C19.705,17.677 19.377,18.325 19.064,19.050 ZM18.210,17.666 C18.012,17.663 17.853,17.828 17.853,18.021 C17.853,18.218 18.013,18.377 18.210,18.377 C18.406,18.377 18.566,18.218 18.566,18.021 C18.566,17.828 18.406,17.666 18.210,17.666 ZM16.625,19.243 L15.766,18.874 L17.300,18.874 L16.625,19.243 ZM15.299,19.008 C14.952,18.145 16.510,18.099 16.510,18.099 L17.400,18.653 C17.400,18.653 16.366,18.653 16.036,18.653 C15.517,18.653 15.299,19.008 15.299,19.008 ZM8.993,20.210 C8.993,20.210 8.740,17.359 10.978,15.133 C11.766,14.350 12.687,13.833 13.484,13.488 C13.829,12.694 14.347,11.775 15.135,10.994 C17.373,8.760 20.231,9.013 20.231,9.013 C17.618,11.617 16.855,14.213 16.925,16.911 C14.214,16.845 11.607,17.605 8.993,20.210 ZM11.843,13.906 L10.903,13.466 L11.884,12.830 L10.733,12.024 C10.733,11.293 11.926,10.940 12.715,10.940 C12.751,10.940 12.788,10.940 12.824,10.940 C12.824,10.940 12.825,10.940 12.827,10.940 C13.303,10.940 14.021,10.940 14.608,10.940 C13.948,11.667 13.497,12.478 13.187,13.190 C12.761,13.372 12.300,13.613 11.843,13.906 ZM12.229,11.745 C12.029,11.743 11.869,11.901 11.869,12.100 C11.869,12.301 12.029,12.456 12.229,12.456 C12.427,12.456 12.588,12.301 12.588,12.100 C12.588,11.901 12.427,11.745 12.229,11.745 ZM10.628,13.335 L9.760,12.961 L11.311,12.961 L10.628,13.335 ZM10.034,12.741 C9.509,12.741 9.290,13.100 9.290,13.100 C8.939,12.226 10.512,12.177 10.512,12.177 L11.410,12.741 C11.410,12.741 10.368,12.741 10.034,12.741 Z"></path>
</svg>