<svg xmlns="http://www.w3.org/2000/svg" version="1.1">
<circle cx="21.95" cy="22.29" r="1.65"></circle>
    <path d="M21.78,20.29A2.86,2.86,0,0,0,21,18.67L22,18l1,.72a2.87,2.87,0,0,0-.74,1.63,2,2,0,0,1,1.44.94,6.64,6.64,0,0,1,2.77-1.82C29.53,18.26,31,16.27,31,14a5.12,5.12,0,0,0-5-4.95A5.8,5.8,0,0,0,22,10.54a5.8,5.8,0,0,0-3.94-1.47,5.12,5.12,0,0,0-5,4.95c0,2.25,1.43,4.24,4.52,5.41a6.76,6.76,0,0,1,2.7,1.73A2,2,0,0,1,21.78,20.29Z"></path>
    <path d="M20.3,23.44a2.86,2.86,0,0,0-1,1.45l-1.1-.47.14-1.19a2.87,2.87,0,0,0,1.78-.17,2,2,0,0,1,.09-1.72,6.64,6.64,0,0,1-3-1.49c-2.56-2.09-5-2.33-6.94-1.21A5.12,5.12,0,0,0,8.5,25.44a5.8,5.8,0,0,0,3.24,2.68,5.8,5.8,0,0,0,.7,4.14,5.12,5.12,0,0,0,6.79,1.86c1.95-1.12,3-3.35,2.43-6.62a6.76,6.76,0,0,1,.15-3.2A2,2,0,0,1,20.3,23.44Z"></path>
    <path d="M33.55,18.75c-1.95-1.12-4.38-.88-6.94,1.21a6.76,6.76,0,0,1-2.85,1.47,2,2,0,0,1,0,1.73,2.86,2.86,0,0,0,1.77.17l.14,1.19-1.1.47a2.87,2.87,0,0,0-1-1.45A2,2,0,0,1,22,24.3a6.64,6.64,0,0,1,.19,3.31c-.53,3.26.48,5.49,2.43,6.62a5.12,5.12,0,0,0,6.79-1.86,5.8,5.8,0,0,0,.7-4.14,5.8,5.8,0,0,0,3.24-2.68A5.12,5.12,0,0,0,33.55,18.75Z"></path>
    <path d="M0,22A22,22,0,1,0,22,0,22,22,0,0,0,0,22Zm4.63,0A17.39,17.39,0,1,1,22,39.4,17.41,17.41,0,0,1,4.63,22Z"></path>
</svg>