<svg xmlns="http://www.w3.org/2000/svg" version="1.1">
<path d="M32.39,28.27H28.58a1,1,0,0,1,0-2h3.28c-2-6.37-7.16-10.9-10.63-10.9-2.49,0-5,3-6.21,4.63,6-3,11.08,3.84,13.06,9.59h4.32A.69.69,0,0,0,32.39,28.27Z"></path>
<path d="M36.56,25.21H33.07a1,1,0,0,1,0-2h3.41C34.72,17.57,29,12.29,25.76,12.36c-1.9.05-3.69,1.36-5,2.64,3.63-.6,9.54,4.33,11.57,11.31h4.18A.55.55,0,0,0,36.56,25.21Z"></path>
<path d="M17.94,19.66c-3.47,0-8.49,4.88-9.77,7.61H21c.72,0,.76,1.25-.08,1.3H16.4c-.79.1-.74,1,0,1.06H27.56C26,24.94,22.2,19.88,17.94,19.66Z"></path>
<path d="M6.69,27.23h.92A2.53,2.53,0,0,1,8,26.68H6.69A.28.28,0,0,0,6.69,27.23Z"></path>
<path d="M37.79,22.45H36.67a5,5,0,0,1,.25.72h.87A.36.36,0,0,0,37.79,22.45Z"></path>
<path d="M0,22A22,22,0,1,0,22,0,22,22,0,0,0,0,22Zm4.62,0A17.35,17.35,0,1,1,22,39.32,17.37,17.37,0,0,1,4.62,22Z"></path>
</svg>