<svg xmlns="http://www.w3.org/2000/svg" version="1.1">
    <path stroke-opacity="0" d="M16.000,32.000 C7.163,32.000 -0.000,24.837 -0.000,16.000 C-0.000,7.164 7.163,0.000 16.000,0.000 C24.837,0.000 32.000,7.164 32.000,16.000 C32.000,24.837 24.837,32.000 16.000,32.000 ZM14.938,0.437 C6.964,0.437 0.500,6.901 0.500,14.875 C0.500,22.849 6.964,29.312 14.938,29.312 C22.911,29.312 29.375,22.849 29.375,14.875 C29.375,6.901 22.911,0.437 14.938,0.437 ZM8.000,12.000 C5.791,12.000 4.000,10.209 4.000,8.000 C4.000,5.791 5.791,4.000 8.000,4.000 C10.209,4.000 12.000,5.791 12.000,8.000 C12.000,10.209 10.209,12.000 8.000,12.000 Z"></path>
</svg>