<svg xmlns="http://www.w3.org/2000/svg" version="1.1">
<path stroke-width="2px" fill-opacity="0" d="M17.000,1.000 C25.837,1.000 33.000,8.163 33.000,17.000 C33.000,25.837 25.837,33.000 17.000,33.000 C8.163,33.000 1.000,25.837 1.000,17.000 C1.000,8.163 8.163,1.000 17.000,1.000 Z"></path>
<path stroke-opacity="0" d="M31.165,21.556 L27.516,10.849 L22.758,21.538 L26.755,29.459 C26.429,29.765 25.296,30.055 24.944,30.329 L17.025,14.041 L9.045,30.329 C8.701,30.060 7.636,29.777 7.316,29.479 L11.211,21.736 L6.480,10.849 L2.873,21.484 C2.742,20.687 2.660,18.374 2.654,17.542 L6.480,6.776 L12.147,19.522 L11.869,20.429 L17.025,10.179 L22.222,20.476 L21.897,19.518 L27.516,6.776 L31.390,17.627 C31.380,18.456 31.299,20.765 31.165,21.556 ZM9.651,22.282 L8.945,23.518 L8.366,24.517 L6.973,19.473 L5.609,25.280 C5.102,24.584 4.650,23.844 4.264,23.063 L6.804,15.640 L9.651,22.282 ZM22.865,30.452 C22.449,30.647 21.229,30.820 20.794,30.975 L17.025,21.219 L13.195,30.975 C12.760,30.820 11.601,30.647 11.185,30.452 L17.025,17.663 L22.865,30.452 ZM18.988,31.006 L15.072,31.006 L17.030,25.046 L18.988,31.006 ZM25.107,23.534 L24.402,22.298 L27.192,15.758 L29.731,23.178 C29.337,23.958 28.875,24.696 28.360,25.390 L27.033,19.473 L25.604,24.392 L25.107,23.534 Z"></path>
</svg>