<svg xmlns="http://www.w3.org/2000/svg" version="1.1">
    <path stroke-width="2px" fill-opacity="0" d="M17,1c6.6,0,12.8,4.3,15,10.5c2.3,6.3,0.3,13.6-4.9,17.9c-5.2,4.2-12.7,4.8-18.4,1.4C3,27.3,0,20.4,1.3,13.8C2.8,6.5,9.5,1,17,1z"></path>
    <path stroke-opacity="0" d="M25.4,12.1c-0.1,0-0.4,0.7-0.4,0.8c-0.4,1.1-0.4,2.4-0.7,3.4c-0.1,0.5-0.3,1-0.6,1.5c-0.2,0.4-0.7,1.2-1.2,1.4c0-0.4,0.2-0.8,0.3-1.2c0.1-0.6,0.1-1.4,0.1-2.1c0-0.7-0.3-1.8,0.1-2.4c0.3-0.4,1-0.7,1.4-1C24.6,12.5,25.4,12.2,25.4,12.1zM21.6,22.7c0-0.4-1.1,0.1-1.3,0.2c-0.5,0.3-1.3-0.1-1-1c0.3-0.7,1.3-0.8,1.8-0.4c0.3,0.3,0.5,0.9,0.6,1.3C21.7,22.7,21.6,22.7,21.6,22.7z M21.4,15.3c0,1.5,0.1,3-0.4,4.1c-0.3,0.8-0.9,1.6-1.7,1.9c-0.1,0-0.4,0.1-0.5,0c-0.3-0.2-0.1-0.1,0-0.4c0.1-0.2,0.1-0.3,0.2-0.5c0.1-0.3,0.2-0.7,0.2-1c0.2-1.3-0.3-2.8,0.4-3.8c0.4-0.7,1.1-1.8,1.9-1.9C21.4,13.9,21.4,15.3,21.4,15.3z M20.8,12.5c-0.4,0-0.9,1.8-1.1,1.8c-0.1-0.6-0.4-1.1-0.7-1.7c-0.2-0.4-0.1-0.6,0.1-1c0.2-0.4,0.6-0.9,0.7-1.4c0.1,0,0.6,1,0.6,1.2C20.6,11.8,20.8,12.2,20.8,12.5z M18.3,18.1c0,0.9-0.1,1.9-0.5,2.7c-0.4,0.8-1.3,0.8-1.7-0.1c-0.7-1.7-0.5-4.3-0.1-5.9c0.2-0.9,0.9-1.8,1-2.7c0.1,0,0.7,1.8,0.8,2.1C18.3,15.3,18.5,16.8,18.3,18.1zM15.4,21.3c-1.4,0.1-2.3-1.2-2.7-2.5c-0.4-1.6-0.2-3.5-0.2-5.1c0.6,0,1.5,1.3,1.8,1.8c0.3,0.5,0.4,0.7,0.4,1.2c-0.1,1.1-0.1,2.5,0.2,3.5C15,20.4,15.4,21,15.4,21.3zM15,12.6c0,0.2-0.3,0.6-0.4,0.9c-0.1,0.3-0.2,0.6-0.3,0.9c0,0-0.3-0.6-0.4-0.7c-0.4-0.7-1-1-0.6-1.7c0.1-0.2,0.8-1.6,0.9-1.6C14.4,10.9,15.5,12,15,12.6zM12.6,21.7c0.5-0.8,1.2-0.5,1.7,0c0.7,0.7,0.1,1.9-0.9,1.4c-0.5-0.3-0.5-0.4-1.2-0.4C12.2,22.3,12.4,21.9,12.6,21.7zM11.5,19.2c-1.4-0.3-2-3.3-2.2-4.4c-0.1-0.6-0.2-1.5-0.4-2c-0.1-0.3-0.5-0.7-0.5-1c0.5,0.1,1.1,0.9,1.5,1.2c0.3,0.2,0.5,0.4,0.8,0.7c0.4,0.3,0.5,0.6,0.5,1.1c0,0.7-0.1,1.5,0,2.3C11.2,17.8,11.5,18.6,11.5,19.2z M16.1,22.5c0.1-1,1.5-1,1.7,0c0.1,0.5-0.1,1-0.4,1.4c-0.1,0.1-0.2,0.2-0.2,0.2c-0.3,0.2-0.2,0.1-0.4-0.1C16.3,23.7,16.1,23.2,16.1,22.5z"></path>
</svg>