<svg xmlns="http://www.w3.org/2000/svg" version="1.1">
    <path d="M0,21.91A21.91,21.91,0,1,0,21.91,0,21.93,21.93,0,0,0,0,21.91Zm4.61,0a17.3,17.3,0,1,1,17.3,17.3A17.32,17.32,0,0,1,4.61,21.91Z"></path>
    <path d="M7.8,13.7A5.78,5.78,0,0,1,10,11.65a8.17,8.17,0,0,1,4-1,8.32,8.32,0,0,1,6.21,2.65,19,19,0,0,1,2.13,3.83c.49,1,1.36,2.4,1.36,2.4a18.2,18.2,0,0,0,6,6.51,14.77,14.77,0,0,0,7.14,2.06,8.85,8.85,0,0,1-6.61,3.2A11.7,11.7,0,0,1,24,29.55,4.31,4.31,0,0,0,21.66,29a5.52,5.52,0,0,0-3.27.88,5.36,5.36,0,0,1-3,1.06c-2.55.1-5.37-2.17-5.37-2.17S21.4,28.33,22,23.28c.37-2.09-1.73-3.8-1.73-3.8s-.53-.45-.66.12a2,2,0,0,1-1.64,2.32,3.94,3.94,0,0,1-3.31-1.07c-1.77-2.19.41-3.39.41-3.39a1.9,1.9,0,0,1,1-.21c1.3-.13.81-1.46.81-1.46a3,3,0,0,0-2.6-1.62,1.8,1.8,0,0,0-1.67,1.2s-.6,2.94-2.71,2.74a3,3,0,0,1-2.6-3.06A3.67,3.67,0,0,1,7.8,13.7Z"></path>
</svg>