<svg xmlns="http://www.w3.org/2000/svg" version="1.1">
<path d="M0,21.91A21.91,21.91,0,1,0,21.91,0,21.93,21.93,0,0,0,0,21.91Zm4.61,0A17.3,17.3,0,1,1,21.91,39.2,17.33,17.33,0,0,1,4.61,21.91Z"></path>
<path d="M16.9,17.72a13,13,0,0,1,3.66-1.46,13.22,13.22,0,0,1,5.92-.07,6.76,6.76,0,0,1,4.9,5.12c.83,3.73-2.3,7-2.3,7a23.39,23.39,0,0,1-2.28,2.17,6,6,0,0,0,1.41,1.35A22.16,22.16,0,0,0,32.32,26c1.51-3.86,1-8.93-4.14-12.57s-12.8-1.84-15.55,1A7.59,7.59,0,0,1,16.9,17.72Z"></path>
<path d="M17.35,18.74a12.35,12.35,0,0,1,.38,3.45A7.89,7.89,0,0,1,17,25.28a12.67,12.67,0,0,0,3.86-2c1.54-1.28,6.27-4.79,7.68-2.59s.32,6-2.79,7.71a3.68,3.68,0,0,0,.76,1.74,18.81,18.81,0,0,0,2.79-2.72c3.48-4.94.44-8.54-.52-9.22a7.44,7.44,0,0,0-.74-.5c-3.78-2.06-8.48-.38-10.28.75Z"></path>
<path d="M17.89,25.65a10,10,0,0,0,3.73-2.24c1.92-1.63,4.8-3.11,6.06-2.77,0,0-3.8,1-6.28,6.29A5,5,0,0,0,17.89,25.65Z"></path>
<path d="M25.28,28.69a6.25,6.25,0,0,0,2.53,3.56s-3.35,2.88-3.12,6.17c0,0-3.38-2.37-1.74-5.67,0,0-3.81,1.28-5.95-3.11C17,29.64,19.08,31.72,25.28,28.69Z"></path>
<path d="M14.67,9.34c4.3-1.95,4.8-3.82,4.8-3.82a4.49,4.49,0,0,1-.66,4.2,5.64,5.64,0,0,1,4.39-1c2.64.46,4.32,1.35,7.06-.53,0,0-1.08,2.51-2.7,3a4.43,4.43,0,0,1,3.07.9,2.74,2.74,0,0,0,2.87.59,3.12,3.12,0,0,1-2.14,1.68A3.58,3.58,0,0,1,34,17c.7,2.36,2.31,2.47,2.31,2.47a2.53,2.53,0,0,1-3.47-1.05L32.67,18A13.24,13.24,0,0,0,29,13.28a13,13,0,0,0-7.9-2.57,14.2,14.2,0,0,0-9.19,3.62S10.38,11.29,14.67,9.34Z"></path>
<path d="M17,19.59a6.26,6.26,0,0,0-4.82-4.86,8.4,8.4,0,0,0-2.6,3.49c-.9,2.08-.89,4.21-2.43,6a2.48,2.48,0,0,0,2-.37s.1.49-.57,1.07a10.49,10.49,0,0,0,7.84.49A8.63,8.63,0,0,0,17,19.59Zm-5.65,2.18a.95.95,0,1,1,.95-.95A.94.94,0,0,1,11.34,21.77Z"></path>
</svg>