<svg xmlns="http://www.w3.org/2000/svg" version="1.1">
    <path stroke-width="2px" fill-opacity="0" d="M17,1c8.8,0,16,7.2,16,16c0,6.6-4.3,12.8-10.5,15C16.2,34.3,9,32.4,4.7,27.3C2.3,24.4,1,20.7,1,17C1,8.2,8.2,1,17,1z"></path>
    <path stroke-opacity="0" d="M31.403,20.035 C28.621,18.392 25.233,17.319 23.593,14.484 C22.553,12.687 22.484,12.676 20.608,13.691 C20.408,13.799 20.211,13.913 20.022,14.039 C18.194,15.254 16.392,15.213 14.545,14.036 C13.870,13.606 13.093,13.319 12.332,13.052 C12.134,12.982 11.677,13.161 11.586,13.346 C9.872,16.824 6.398,18.552 3.135,20.526 C5.843,20.527 8.551,20.504 11.258,20.556 C11.616,20.563 11.966,20.952 12.320,21.164 C11.999,21.369 11.699,21.622 11.352,21.767 C10.878,21.965 10.370,22.080 9.876,22.230 C10.404,22.381 10.926,22.528 11.461,22.556 C12.708,22.624 13.963,22.543 15.209,22.620 C15.483,22.637 15.732,23.063 15.993,23.301 C15.734,23.494 15.498,23.793 15.209,23.916 C14.997,24.006 14.716,23.938 14.466,23.938 C11.143,23.938 7.821,23.937 4.498,23.941 C4.168,23.941 3.837,23.977 3.467,23.998 C2.199,22.224 2.123,21.518 2.091,20.526 C2.092,20.526 2.092,20.526 2.093,20.526 L2.179,20.458 C2.456,20.304 2.594,20.186 2.699,20.123 C6.905,17.641 10.922,13.740 12.155,8.926 C12.274,8.458 12.411,7.971 12.659,7.565 C13.086,6.865 13.749,6.743 14.532,6.962 C15.378,7.200 15.051,7.787 14.986,8.294 C14.867,9.215 14.729,9.118 14.598,10.037 C14.695,10.058 14.791,10.079 14.887,10.100 C15.143,8.983 15.439,8.889 15.642,7.762 C15.812,6.822 16.358,6.433 17.257,6.417 C18.343,6.399 18.806,6.815 18.999,7.963 C19.186,9.077 19.717,9.372 20.547,10.391 C20.329,8.972 19.657,8.541 19.463,7.277 C20.961,6.639 21.706,6.967 22.187,8.375 C22.554,9.447 22.868,10.543 23.307,11.586 C24.886,15.333 28.745,17.884 32.238,19.873 L32.644,20.044 L31.403,20.035 ZM15.592,26.816 C16.131,26.681 16.726,26.768 17.298,26.766 C18.405,26.762 19.514,26.790 20.620,26.741 C20.876,26.730 21.122,26.465 21.373,26.317 C21.116,26.144 20.879,25.912 20.596,25.818 C20.339,25.732 20.031,25.797 19.745,25.794 C19.066,25.788 18.382,25.828 17.712,25.748 C17.473,25.720 17.268,25.401 17.047,25.215 C17.261,25.023 17.445,24.758 17.695,24.659 C17.944,24.560 18.258,24.627 18.544,24.627 C22.831,24.626 27.119,24.608 31.406,24.643 C32.123,24.649 28.990,28.619 26.007,30.858 C25.638,30.826 25.374,30.785 25.110,30.784 C23.252,30.778 21.394,30.785 19.537,30.777 C19.218,30.776 18.880,30.779 18.588,30.675 C18.401,30.609 18.160,30.346 18.166,30.179 C18.173,30.013 18.431,29.777 18.625,29.715 C18.922,29.620 19.258,29.629 19.577,29.628 C21.578,29.621 23.579,29.652 25.579,29.597 C25.955,29.586 26.321,29.243 26.692,29.054 C26.314,28.866 25.939,28.525 25.558,28.517 C23.129,28.467 20.699,28.493 18.270,28.491 C17.377,28.491 16.470,28.571 15.597,28.438 C15.222,28.382 14.915,27.876 14.577,27.575 C14.913,27.310 15.214,26.910 15.592,26.816 Z"></path>
</svg>