<svg xmlns="http://www.w3.org/2000/svg" version="1.1">
<path d="M26.000,0.011 C11.663,0.011 -0.001,11.674 -0.001,26.010 C-0.001,40.343 11.663,52.006 26.000,52.009 C40.337,52.009 52.001,40.344 52.001,26.006 C52.001,11.672 40.337,0.011 26.000,0.011 ZM42.293,38.455 L40.514,32.134 L39.156,37.436 L38.461,36.270 L37.473,34.593 L40.548,29.371 L44.214,35.452 C43.662,36.512 43.015,37.512 42.293,38.455 ZM38.346,42.377 L26.001,21.413 L13.656,42.377 C13.173,42.012 12.708,41.628 12.260,41.223 L26.001,17.864 L39.772,41.195 C39.314,41.610 38.839,42.004 38.346,42.377 ZM35.725,44.086 L26.001,27.573 L16.277,44.086 C15.771,43.813 15.283,43.511 14.803,43.197 L26.001,24.181 L37.198,43.197 C36.718,43.511 36.231,43.813 35.725,44.086 ZM27.873,46.447 L26.005,39.811 L24.138,46.447 C22.965,46.341 21.827,46.123 20.720,45.827 L26.001,36.859 L31.282,45.828 C30.177,46.123 29.042,46.340 27.873,46.447 ZM32.666,45.409 L26.001,34.091 L19.336,45.409 C18.726,45.199 18.129,44.963 17.547,44.699 L26.001,30.341 L34.455,44.699 C33.872,44.964 33.276,45.199 32.666,45.409 ZM5.472,26.131 L11.378,16.101 L18.391,28.019 L17.292,29.886 L11.378,19.938 L5.777,29.448 C5.594,28.367 5.478,27.263 5.472,26.131 ZM6.223,31.460 L11.378,22.706 L16.416,31.372 L15.348,33.186 L11.378,26.444 L7.024,33.837 C6.706,33.068 6.447,32.272 6.223,31.460 ZM7.710,35.296 L11.378,29.212 L14.533,34.570 L13.545,36.249 L12.733,37.604 L11.332,32.134 L9.595,38.306 C8.884,37.361 8.251,36.357 7.710,35.296 ZM33.601,28.011 L40.548,16.101 L46.522,26.247 C46.509,27.373 46.395,28.473 46.207,29.548 L40.548,19.938 L34.668,29.826 L33.601,28.011 ZM40.548,26.603 L36.659,33.208 L35.512,31.259 L40.548,22.706 L45.754,31.547 C45.517,32.388 45.247,33.216 44.910,34.010 L40.548,26.603 ZM46.306,23.111 L40.548,13.333 L32.727,26.526 L31.789,24.933 L39.984,11.015 C43.334,14.141 45.631,18.363 46.306,23.111 ZM38.914,10.065 L30.974,23.548 L26.001,15.095 L20.988,23.609 L13.035,10.104 C16.573,7.214 21.086,5.476 26.000,5.476 C30.891,5.476 35.383,7.200 38.914,10.065 ZM11.968,11.060 L20.172,24.993 L19.195,26.654 L11.378,13.333 L5.721,22.940 C6.424,18.284 8.685,14.143 11.968,11.060 Z"></path>
</svg>