<svg xmlns="http://www.w3.org/2000/svg" version="1.1">
    <path d="M61.851,30.323 C61.842,46.982 47.935,60.604 30.941,60.598 C13.821,60.593 -0.027,46.992 -0.000,30.210 C0.026,13.550 13.922,-0.004 30.962,0.007 C47.932,0.018 61.859,13.688 61.851,30.323 ZM42.523,51.054 C41.940,51.006 41.524,50.941 41.107,50.940 C38.174,50.931 35.241,50.942 32.308,50.929 C31.805,50.927 31.271,50.932 30.811,50.771 C30.515,50.668 30.135,50.260 30.145,50.002 C30.155,49.744 30.563,49.379 30.869,49.282 C31.337,49.135 31.868,49.150 32.372,49.148 C35.531,49.137 38.691,49.185 41.847,49.099 C42.441,49.083 43.020,48.551 43.605,48.258 C43.008,47.967 42.416,47.438 41.814,47.426 C37.980,47.349 34.144,47.387 30.308,47.385 C28.898,47.384 27.467,47.509 26.088,47.303 C25.496,47.215 25.012,46.432 24.479,45.964 C25.008,45.555 25.484,44.934 26.080,44.788 C26.932,44.579 27.872,44.713 28.774,44.711 C30.522,44.705 32.273,44.748 34.018,44.673 C34.424,44.655 34.811,44.244 35.207,44.014 C34.802,43.747 34.428,43.387 33.981,43.241 C33.574,43.108 33.088,43.209 32.637,43.204 C31.566,43.194 30.485,43.256 29.428,43.133 C29.050,43.089 28.727,42.595 28.378,42.307 C28.715,42.009 29.006,41.597 29.401,41.444 C29.793,41.291 30.290,41.394 30.742,41.394 C37.510,41.393 44.279,41.366 51.047,41.420 C52.179,41.429 52.855,41.145 53.179,40.059 C53.715,38.265 54.259,36.469 54.881,34.702 C55.380,33.284 54.811,32.565 53.560,31.840 C48.739,29.044 44.629,25.491 41.787,20.667 C39.986,17.610 39.866,17.591 36.617,19.317 C36.270,19.502 35.928,19.696 35.600,19.910 C32.434,21.977 29.312,21.908 26.111,19.905 C24.942,19.173 23.595,18.685 22.278,18.231 C21.934,18.112 21.143,18.416 20.984,18.732 C18.014,24.651 13.276,28.852 7.618,32.212 C7.129,32.503 6.923,33.252 6.370,34.132 C7.319,34.132 7.651,34.132 7.983,34.132 C12.270,34.132 16.557,34.097 20.842,34.177 C21.407,34.188 21.961,34.791 22.519,35.121 C22.012,35.438 21.538,35.831 20.991,36.055 C20.243,36.361 19.440,36.539 18.660,36.773 C19.493,37.007 20.318,37.399 21.163,37.444 C23.131,37.548 25.113,37.422 27.079,37.543 C27.513,37.568 27.905,38.229 28.317,38.598 C27.908,38.897 27.535,39.278 27.079,39.468 C26.745,39.609 26.302,39.503 25.907,39.503 C20.661,39.503 15.416,39.501 10.170,39.507 C9.649,39.508 9.127,39.563 8.542,39.596 C14.536,53.757 31.868,57.595 42.523,51.054 ZM6.454,31.525 C6.976,31.298 7.183,31.231 7.367,31.124 C14.653,26.901 19.853,21.078 21.989,12.886 C22.196,12.091 22.434,11.262 22.862,10.571 C23.602,9.380 24.751,9.174 26.107,9.546 C27.573,9.950 27.007,10.949 26.894,11.813 C26.689,13.380 26.448,14.942 26.223,16.505 C26.389,16.541 26.556,16.576 26.723,16.612 C27.166,14.711 27.679,12.823 28.032,10.907 C28.326,9.307 29.271,8.646 30.829,8.619 C32.711,8.587 33.512,9.296 33.846,11.249 C34.170,13.144 34.271,15.116 35.709,16.850 C35.331,14.436 34.987,12.232 34.651,10.081 C37.246,8.996 38.537,9.554 39.371,11.949 C40.006,13.774 40.551,15.637 41.311,17.412 C44.046,23.789 48.974,28.127 55.025,31.511 C56.381,24.855 51.975,15.549 45.043,10.899 C36.536,5.191 27.518,4.712 18.606,9.758 C10.309,14.456 6.516,21.897 6.454,31.525 Z"></path>
</svg>