<svg xmlns="http://www.w3.org/2000/svg" version="1.1">
    <path stroke-width="2px" fill-opacity="0" d="M17.000,1.000 C25.837,1.000 33.000,8.164 33.000,17.000 C33.000,25.836 25.837,33.000 17.000,33.000 C8.163,33.000 1.000,25.836 1.000,17.000 C1.000,8.164 8.163,1.000 17.000,1.000 Z"></path>
    <path stroke-opacity="0" d="M25.663,19.591 C24.937,20.812 23.780,21.102 23.780,21.102 C23.780,21.102 24.101,22.219 23.374,23.441 C22.526,24.866 20.614,25.154 19.427,24.489 C18.293,23.854 17.707,22.595 18.015,20.754 C18.116,20.156 18.132,19.471 17.907,18.887 C18.271,18.877 18.593,18.707 18.802,18.447 C19.301,18.823 19.407,19.267 19.407,19.267 L20.048,19.001 L19.965,18.331 C19.965,18.331 19.519,18.462 18.936,18.234 C19.007,18.088 19.049,17.924 19.049,17.750 C19.049,17.576 19.006,17.409 18.932,17.261 C19.543,17.144 20.120,16.801 20.587,16.430 C22.077,15.250 23.493,15.113 24.626,15.750 C25.814,16.414 26.511,18.165 25.663,19.591 ZM19.496,14.420 C18.938,14.625 18.348,14.938 17.959,15.397 C17.787,15.126 17.497,14.935 17.158,14.889 C17.240,14.311 17.567,14.013 17.567,14.013 L17.036,13.626 L16.505,14.013 C16.505,14.013 16.830,14.308 16.913,14.883 C16.570,14.911 16.271,15.091 16.086,15.351 C15.697,14.918 15.128,14.618 14.591,14.420 C12.877,13.790 12.087,12.720 12.087,11.508 C12.087,10.241 13.243,8.847 14.860,8.847 C16.246,8.847 17.043,9.637 17.043,9.637 C17.043,9.637 17.841,8.847 19.226,8.847 C20.844,8.847 22.000,10.241 22.000,11.508 C22.000,12.720 21.210,13.790 19.496,14.420 ZM15.189,17.217 C15.099,17.378 15.047,17.560 15.047,17.754 C15.047,17.906 15.079,18.051 15.135,18.183 C14.552,18.412 14.107,18.280 14.107,18.280 L14.024,18.947 L14.660,19.211 C14.660,19.211 14.764,18.774 15.257,18.400 C15.452,18.672 15.765,18.855 16.123,18.881 C15.923,19.449 15.940,20.100 16.037,20.678 C16.343,22.506 15.760,23.758 14.634,24.387 C13.454,25.050 11.554,24.763 10.711,23.345 C9.990,22.133 10.308,21.021 10.308,21.021 C10.308,21.021 9.158,20.733 8.436,19.521 C7.592,18.103 8.286,16.363 9.466,15.701 C10.593,15.070 12.000,15.206 13.480,16.378 C13.961,16.760 14.559,17.113 15.189,17.217 ZM17.002,16.146 C17.573,16.146 18.037,16.597 18.037,17.149 C18.037,17.704 17.573,18.156 17.002,18.156 C16.433,18.156 15.968,17.704 15.968,17.149 C15.968,16.597 16.433,16.146 17.002,16.146 Z"></path>
</svg>