<svg xmlns="http://www.w3.org/2000/svg" version="1.1">
    <path d="M59.2,18.54c1,0,1.63.21,2.25-.76a8.82,8.82,0,0,0,1.06-3.2,3.52,3.52,0,0,0-.06-2.48c-.64-1-1.88-.73-2.82-.47-2.36.67-4.53,1.78-7,1.09-.65-.18-1.57-.54-2,.22-.48,1,.09,2.44.35,3.4,1.66-.56,3.91-1,5.15-2.3.73-.77,1.22-.42,2.11-.06a12.36,12.36,0,0,1,1.89.64c1.77,1.14-1.23,1.68-1.91,1.89a26.19,26.19,0,0,0-5.72,2.87c0-.46.55-.78.82-1.07A11.89,11.89,0,0,0,54.45,17a13.1,13.1,0,0,1-3.36-.47,23.39,23.39,0,0,0,.46,2.5c.27,1,.77.85,1.67.68C55.22,19.29,57.15,18.54,59.2,18.54Z"></path><path d="M63.15,86.19c-2.26,0-4.28,1.23-6.16,2.36a6.77,6.77,0,0,0,3.41,2.61,6.42,6.42,0,0,0,4.44-.4c1.11-.6,2-2,1.27-3.28A3.52,3.52,0,0,0,63.15,86.19Z"></path>
    <path d="M57,0A57,57,0,0,0,2.34,73.25a57,57,0,0,0,84.28,32.46,57,57,0,0,0,10.1-89.59A56.85,56.85,0,0,0,57,0Zm-2.1,77.82a3.56,3.56,0,0,0-1.34-.65c.69-1.55,3.84-.6,4.84-.1s2.54,1.52,2.93,2.74c.68,2.15-2.4,1.88-3.59,1.88a26.18,26.18,0,0,0-3.64.32,13.2,13.2,0,0,1-3.15.56C52.52,81.76,57.36,80.09,54.89,77.82Zm3.91-8.26c-.48-.26-1.21.21-1.68.32a12.1,12.1,0,0,1-2.81.37c4.56-2.55,9.77-5.65,11-11.16.56-2.59.24-5.73-1.78-7.65a7.93,7.93,0,0,0-7.41-1.59c1,1.3,2,2.63,1.77,4.36A13.24,13.24,0,0,1,56,58.86a26.62,26.62,0,0,1-5.28,6.53c-1.08,1-3.63,3.2-4.92,1.42a3.47,3.47,0,0,1-.46-1.73,9,9,0,0,0-.86-2.49A12.14,12.14,0,0,1,42.88,58c-.16-5,5.53-8,9.61-9.27,5.93-1.81,13.1-.73,16,5.35a10.23,10.23,0,0,1-.43,9.86C66,67.05,62.25,68.49,58.8,69.56ZM43.11,31.08c1.2-1.33,2.64-2.41,3.85-3.74a4.73,4.73,0,0,0,1.24-1.8c.08-.32-.14-1.16.21-1.27.55-.19,1.27,1.31,1.45,1.63.28.51.55,1.62,1,2s.92-.1,1.34-.3c1-.45,2-.75,2.92-1.21s.71-2.52.57-3.56c-.07-.5-.16-1.12-.76-1.22a5.18,5.18,0,0,0-1.8.41c-.6.31-.66.73-1.45.42a8,8,0,0,1-1.93-1.28c-1.5-1.25-2-3.32-2.31-5.18s0-3.78-.9-5.46a28.24,28.24,0,0,1,3.51,2.64c.43-1.5,1.77-2.06,3.12-2.54a15.63,15.63,0,0,1,5.24-1c.91,0,1.83.18,2.74.12a4.5,4.5,0,0,1,2.44.22,12,12,0,0,1,3.67,2.37c1.24,1.29.33,2.67-.5,3.89-1,1.43-1.75,3.15-3,4.33A5.15,5.15,0,0,1,62,21.8c-.78.23-1.19-.39-1.77-.78-.8-.54-2.3-.08-3,.43-.25.18,1.13,1,1.18,1.09a3.39,3.39,0,0,1,1.17,2c.47-.18.55-.72,1.08-.91s.63,0,1.12.14a22.1,22.1,0,0,1,2.23.83c.58.24,1.36.31,1.58,1,.57,1.8-2.29,1-3.08,1-1.23.08-3.22.65-3.33,2.07,0,.6.18.61.71.81s1,.31,1.49.49c.78.28,2.19.92,1.15,1.83a12.78,12.78,0,0,1-3,1.42c-.49.23-1,.35-1.15.89a9.3,9.3,0,0,0-.13,1.91A23.76,23.76,0,0,1,64.38,36c1,0,1.36-.37,2.12.34a13,13,0,0,0,1.94,1.24c.5.35,1.18.88,1.11,1.58s-.89.93-1.53.92c-1,0-2-.26-3-.31a24.26,24.26,0,0,0-3.29.23c0-.48.85-.54,1.1-.84.57-.68-.48-.61-1-.61a31.89,31.89,0,0,0-6.47.62c-3.85.71-8,2.34-11.75.36a18.09,18.09,0,0,0,5.87-1.29c2.1-.66,4.27-1,6.37-1.65-.22-.46-.47-1.44-1-1.45a3.6,3.6,0,0,0-1,.47c-.5.23-1,.45-1.51.66-.68.29-2.7,1.65-3.42,1.3,1.45-.93,2.94-1.79,4.39-2.71.42-.27,2.05-.94,1.88-1.57a11.55,11.55,0,0,1-5,0A22.25,22.25,0,0,1,54,31.16a3.86,3.86,0,0,0,1.28-.51c.36-.36.17-.79.17-1.27a8.4,8.4,0,0,1-2.19.56c-.63,0-1.28-.13-1.9,0-1.37.19-2.83,1.44-4,2.07-.69.36-1.43.62-2.12,1-.51.26-1.11.84-1.7.84C42.23,33.78,42.6,31.72,43.11,31.08Zm18.3,63.59a4,4,0,0,1-3.32-1.19,6.77,6.77,0,0,1-.75-2,20.59,20.59,0,0,0-1.11-2.38c-.68.52-1.41,1-2.12,1.46-.26.19-1.34.65-1.44,1s.74,1.18.91,1.43c.55.78,1.07,1.56,1.59,2.36a48.24,48.24,0,0,1,2.9,4.83c.69,1.37,1.7,3.33,1.61,4.9-.11,2.09-2.38,0-2.86-.69-.85-1.25-1.62-2.5-2.54-3.72-1.12-1.48-2.19-3-3.19-4.58-.35-.55-.69-1.1-1-1.67s-.35-.77-.89-.67c-.73.15-1.17.63-2,.67a8.56,8.56,0,0,1-2.83-.46,13.42,13.42,0,0,1-2.75-1c-.47-.24-1.43-.64-1.52-1.25a20,20,0,0,0,7.39-1.73c-.66-1.42-1.69-3-1.35-4.6a2.69,2.69,0,0,1,2.73-2.18c0,.53-.5.8-.64,1.27a1.61,1.61,0,0,0,.43,1.37c.37.53.83,1,1.2,1.54.22.32.55,1.11,1,1.24s1.16-.44,1.51-.59a15.3,15.3,0,0,0,2.43-1c.47-.3.43-.49.21-1a8.27,8.27,0,0,1-.57-1.83c.64.89.59,2.66,2.11,2.17a41.85,41.85,0,0,1,4.25-1.33c2.58-.54,5.53-.57,7.86.86a3.83,3.83,0,0,1,.66,6.44C67.19,94.1,64.14,94.67,61.41,94.67Z"></path>
    <path d="M47.68,54.77c-1.41,1.6-3.29,4.36-2.11,6.55a2.2,2.2,0,0,0,3.39,1A18,18,0,0,0,52.5,58.5,19.46,19.46,0,0,0,55.21,54c.34-.86.84-2.93-.08-3.71-.72-.6-2.53.6-3.23,1A15.08,15.08,0,0,0,47.68,54.77Z"></path>
</svg>