<svg xmlns="http://www.w3.org/2000/svg" version="1.1">
    <path d="M43.92,21.33a26.06,26.06,0,0,0-.64-4.71c-.2-.73-.42-1.43-.65-2.1a19.29,19.29,0,0,0-1.25-2.76A25,25,0,0,0,38.59,7.6a17.17,17.17,0,0,0-3.27-3A25.72,25.72,0,0,0,31.17,2,23.41,23.41,0,0,0,27.76.75,23.41,23.41,0,0,0,21.46,0,21.52,21.52,0,0,0,15.2,1.05a27.55,27.55,0,0,0-3.08,1.27,18.17,18.17,0,0,0-4.3,2.8A23.71,23.71,0,0,0,4.73,8.28a20.39,20.39,0,0,0-2.55,4.1A22,22,0,0,0,1,15.27a24,24,0,0,0-1,4.87,21.92,21.92,0,0,0,.73,7.49A19.5,19.5,0,0,0,2,30.91a26.62,26.62,0,0,0,2.63,4.38A20,20,0,0,0,7.72,38.5a22.41,22.41,0,0,0,3.8,2.62A20.52,20.52,0,0,0,18,43.43a23.27,23.27,0,0,0,7.27.12,23.7,23.7,0,0,0,3-.63,16.1,16.1,0,0,0,1.89-.66,25.77,25.77,0,0,0,4.8-2.62,17.16,17.16,0,0,0,3.41-3A24.26,24.26,0,0,0,41,32.86a21.26,21.26,0,0,0,2.38-6,24.91,24.91,0,0,0,.39-2.57c0-.48.07-1,.1-1.52A3.68,3.68,0,0,0,43.92,21.33ZM16.75,28.67H9c-.66,0-2.56.28-3-.08-.11-.09-.15-.34-.21-.5-.14-.41-.33-.85-.45-1.27-.19-.66-.23-1.32-.48-2.05H13a8.84,8.84,0,0,1,2.52,0,.76.76,0,0,1,.36,1.09c-.47.5-1.54.05-2.22.29-1,.36-.33,1,.48,1,1.48.07,3,0,4.46,0,.61,0,1.39,0,1.52.65C20.31,29.13,17.39,28.67,16.75,28.67Zm2-21.41c0,.06.43.19.5.19A5.67,5.67,0,0,0,19,9.54a24.71,24.71,0,0,1-.5,2.58c1,0,1.21-3,1.33-3.67A1.74,1.74,0,0,1,21,6.86a2.6,2.6,0,0,1,1.24-.1c1.68.34,1.54,1.49,1.85,3.08.1.55.37,2.28,1.1,2.28A15.41,15.41,0,0,1,24.55,8c.11-1.2,1.63-.87,2.26-.25a4.93,4.93,0,0,1,.92,2.31c.24,1,.52,1.89.9,3-2.09.12-3.3,1.7-4.9,2.17a6.56,6.56,0,0,1-3.7,0c-.79-.28-1.61-1-2.42-1.36A6.92,6.92,0,0,0,14.84,13c.32-1.26.75-2.52,1.15-3.78a5.78,5.78,0,0,1,.58-1.48C17.18,7,17.84,7.26,18.74,7.26ZM37.36,30a16.73,16.73,0,0,1-4.69,5.58,8.6,8.6,0,0,1-1.73,1.22,5.21,5.21,0,0,1-1.71.12H24.75c-.63,0-1.26,0-1.88,0-.41,0-1,.18-1.36-.09-.86-.64.33-1.13.91-1.18a64.43,64.43,0,0,1,7,0c.49,0,1.65.11,1.56-.71s-1.48-.53-2.08-.53c-2.85,0-5.69,0-8.54,0a9.12,9.12,0,0,1-2.29,0,.92.92,0,0,1-.32-1.63c.79-.64,2.56-.32,3.54-.32.69,0,1.4,0,2.09,0a5,5,0,0,0,1.35-.07.48.48,0,0,0,.2-.68c-.23-.46-.91-.32-1.34-.32s-3.18.3-3.45-.38c-.52-1.3,2.05-1,2.57-1h5C30.85,30,34.2,29.77,37.36,30Zm2-7.29a2.81,2.81,0,0,0-.07.75,5.62,5.62,0,0,0-1-.64c-.46-.3-.93-.59-1.41-.91A17.6,17.6,0,0,1,34.7,20.1a36,36,0,0,1-3.58-3.72,7.73,7.73,0,0,1-1-1.63,8.74,8.74,0,0,1-.36-1c-.17-.55-.45-1-.59-1.54-.2-.75-.49-1.67-.68-2.4a13.34,13.34,0,0,0-.55-1.91,2.53,2.53,0,0,0-1.49-1.45,3.79,3.79,0,0,0-1.5,0l-.5.18c-.42.06-.09.14-.5,0a5,5,0,0,1-.59-.41A3.45,3.45,0,0,0,20,6.49a.91.91,0,0,1-1.09.14c-.05,0-.31-.17-.36-.18a2.37,2.37,0,0,0-1.36.13c-1.49.58-1.63,2.19-2,3.4a24.83,24.83,0,0,1-1.68,4.18,21,21,0,0,1-3.86,5,25.26,25.26,0,0,1-2.4,2c-.38.29-.82.59-1.22.91-.23.17-1,.86-1.3.86a18.87,18.87,0,0,1,.43-5.08A19,19,0,0,1,6,15.22a18.43,18.43,0,0,1,2-3.48,15.35,15.35,0,0,1,5.4-4.86A17.83,17.83,0,0,1,19.08,4.8a19.51,19.51,0,0,1,5.76,0,18.08,18.08,0,0,1,3.51,1,16.52,16.52,0,0,1,6.34,4.37A16.55,16.55,0,0,1,37,13.27a17.75,17.75,0,0,1,2.12,5.78A20.17,20.17,0,0,1,39.37,22.71Z"></path>
</svg>