<svg xmlns="http://www.w3.org/2000/svg" version="1.1">
    <path stroke-width="2px" fill-opacity="0" d="M17.000,1.000 C25.837,1.000 33.000,8.164 33.000,17.000 C33.000,25.836 25.837,33.000 17.000,33.000 C8.163,33.000 1.000,25.836 1.000,17.000 C1.000,8.164 8.163,1.000 17.000,1.000 Z"></path>
    <path stroke-opacity="0" d="M8.388,12.792 C8.578,12.424 9.074,11.957 9.704,11.600 C10.261,11.284 11.020,11.047 12.110,11.007 C12.237,10.998 14.419,10.940 15.891,12.545 C16.348,13.065 16.573,13.591 17.185,14.767 C17.482,15.324 18.015,16.158 18.015,16.158 C18.015,16.158 19.379,18.670 21.663,19.939 C24.027,21.208 26.007,21.133 26.007,21.133 C26.007,21.133 24.486,23.024 21.980,22.993 C20.092,23.055 18.547,22.172 18.239,21.995 C17.524,21.598 16.826,21.658 16.826,21.658 C15.515,21.655 14.834,22.168 14.834,22.168 C14.834,22.168 14.004,22.789 13.027,22.781 C11.472,22.842 9.759,21.522 9.759,21.522 C9.759,21.522 16.663,21.285 17.013,18.353 C17.238,17.142 15.960,16.148 15.960,16.148 C15.960,16.148 15.637,15.886 15.557,16.219 C15.529,16.493 15.686,17.293 14.560,17.564 C14.560,17.564 13.417,17.776 12.545,16.946 C11.466,15.674 12.793,14.980 12.793,14.980 C12.793,14.980 12.973,14.859 13.417,14.859 C14.210,14.784 13.909,14.012 13.909,14.012 C13.909,14.012 13.449,13.089 12.323,13.073 C11.561,13.059 11.307,13.770 11.307,13.770 C11.307,13.770 10.943,15.479 9.659,15.357 C7.994,15.024 8.074,13.581 8.074,13.581 C8.074,13.581 8.095,13.289 8.388,12.792 Z"></path>
</svg>