<svg xmlns="http://www.w3.org/2000/svg" version="1.1">
<path d="M0,57a57,57,0,0,0,114,0h0A57,57,0,0,0,0,57Zm12,0A45,45,0,0,1,102,57h0A45,45,0,0,1,12,57Zm102,0Z"></path>
<path d="M58.44,58.43c-13.35-.33-26.18,3.43-39.05,16.28a34,34,0,0,1,9.77-25.07,39.54,39.54,0,0,1,12.35-8.13,39.44,39.44,0,0,1,8.12-12.34,34.09,34.09,0,0,1,25.1-9.77C61.85,32.26,58.1,45.09,58.44,58.43Z"></path>
<path d="M26.86,35s-7.74.22-6,4.56a4.29,4.29,0,0,1,3.66-1.79h6.78Z"></path>
<polygon points="30.79 38.91 23.16 38.9 27.43 40.74 30.79 38.91"></polygon>
<path d="M38.24,28.9h-.54c-3.89,0-9.76,1.75-9.76,5.35l5.67,4L28.78,41.4l4.63,2.17A44.65,44.65,0,0,1,40,40,40.17,40.17,0,0,1,47,28.9Zm-2.93,7.5a1.77,1.77,0,1,1,1.77-1.77A1.77,1.77,0,0,1,35.32,36.4Z"></path>
<path d="M86.62,86.6C74.5,86.29,61.09,87.23,50,98.3c0,0,.11-11.19,10.11-21.2a30.2,30.2,0,0,1,10.29-6.69,30.1,30.1,0,0,1,6.69-10.29c10-10,21.2-10.11,21.2-10.11C87.24,61.09,86.31,74.49,86.62,86.6Z"></path>
<path d="M56.4,64.29s-7.67.23-6,4.5A4.26,4.26,0,0,1,54.06,67h6.72Z"></path>
<polygon points="60.29 68.13 52.73 68.13 56.97 69.95 60.29 68.13"></polygon>
<path d="M67.67,58.23l0,0-.55,0c-3.84,0-9.66,1.75-9.66,5.3l5.62,3.94L58.3,70.61l4.09,1.91A34.76,34.76,0,0,1,69,69a29.77,29.77,0,0,1,6.68-10.28l.49-.47Zm-2.89,7.43A1.75,1.75,0,0,1,63,63.91a1.75,1.75,0,1,1,1.76,1.75Z"></path>
</svg>