<svg xmlns="http://www.w3.org/2000/svg" version="1.1">
    <path stroke-width="1px" fill-opacity="0" d="M8.5,0.5c3.3,0,6.4,2.2,7.5,5.3c1.1,3.1,0.1,6.7-2.5,8.9c-2.6,2.1-6.3,2.4-9.2,0.7C1.5,13.6,0,10.3,0.6,7C1.4,3.3,4.7,0.5,8.5,0.5z"></path>
    <path stroke-opacity="0" d="M15.1,12.8c-0.2-0.1-0.6,0-0.8,0c-0.7,0-1.4,0-2.1,0c-1.9,0-3.7,0-5.6,0c-1.3,0-2.9,0.2-4.2,0c-0.5-0.1-0.6-0.2-0.8-0.8c-0.3-0.7-0.2-1.2,0.3-1.6C3.6,9.3,5,7.8,5.6,6C6,4.9,6,3.9,7.5,4.3c0.4-0.7,1.1-0.4,1.6-0.2c0.5,0.2,1.1-0.1,1.5,0.3C11,4.8,11.4,6,11.4,6.5c0,0,0,0,0,0c0.3,1.7,2,3,3.4,4c0.1,0.1,0.6,0.3,0.7,0.4C15.6,11.3,15.2,12.4,15.1,12.8z M5.5,10.9c-1.3,0-2.6,0-3.9,0c0.3,0.3,0.3,1,0.5,1.4c0,0.1,0.2,0.4,0.2,0.4c0.2,0.1,0.8,0.1,1,0.1c0.8,0,1.7,0,2.5,0c0.8,0,1.7,0,2.5,0c0.6,0,1.7,0.2,2.3,0c0.5-0.2,0.3-0.5,0-0.6c-1-0.4-2.4,0.2-3.5,0c-0.9-0.2-0.1-0.5,0.3-0.5c0.3,0,1,0.1,1-0.3C8.5,10.6,5.9,10.9,5.5,10.9zM11.1,6.6c-0.1,0-0.4-1.5-0.5-1.7c-0.3-0.5-0.5-0.4-1-0.4c-0.6,0.1-1.4,0-2,0c0.5,0,1-0.1,1.5-0.1c-0.2,0-0.5-0.3-0.7-0.3C8.2,4.2,8,4.2,7.9,4.3C7.4,4.5,7.4,4.5,7.1,4.5c-0.4,0-0.5,0-0.7,0.3C6,5.1,5.8,6.2,5.6,6.8c0.9,0,1.5,0.8,2.4,1c1.4,0.2,1.8-0.9,3.1-1C11.2,6.7,11.2,6.7,11.1,6.6z M7.4,4.6c0.1,0,0.1,0,0.2,0C7.6,4.6,7.4,4.6,7.4,4.6z"></path>
</svg>